<?xml version="1.0" encoding="UTF-8"?>
<svg version="1.1" xmlns="http://www.w3.org/2000/svg" width="211" height="239">
<path d="M0 0 C0.68412964 0.00338379 1.36825928 0.00676758 2.07312012 0.01025391 C3.73757072 0.01897973 5.40199549 0.03242629 7.06640625 0.046875 C7.13670419 20.24077742 7.18949576 40.43465477 7.22184277 60.62865448 C7.23726589 70.00654712 7.25826758 79.38436342 7.29272461 88.76220703 C7.32276721 96.94256696 7.34201429 105.12287155 7.34867173 113.30328512 C7.352559 117.6287379 7.36159786 121.95403248 7.38359642 126.2794342 C7.40419731 130.36372261 7.41019325 134.44779004 7.40572929 138.53212547 C7.40654408 140.01864517 7.41236757 141.50517349 7.42402267 142.99164772 C7.58792661 165.00479411 2.5532365 184.15401524 -11.93359375 201.046875 C-12.85398438 202.13548828 -12.85398438 202.13548828 -13.79296875 203.24609375 C-26.07172094 216.60054859 -45.26540546 225.38921896 -63.265625 226.33203125 C-85.59295051 227.00022825 -105.26409321 219.78140868 -121.59375 204.40625 C-137.37883189 188.48940616 -144.19397066 168.82892956 -144.18237305 146.58007812 C-143.87882013 124.68932709 -138.50318115 103.65538939 -128.93359375 84.046875 C-128.62019043 83.40089355 -128.30678711 82.75491211 -127.98388672 82.08935547 C-123.51536478 73.00464817 -118.35390838 64.91530476 -111.93359375 57.046875 C-111.47436523 56.48081543 -111.01513672 55.91475586 -110.54199219 55.33154297 C-85.51108081 24.66658364 -51.01887203 5.41319162 -11.68041992 0.3894043 C-7.76296139 0.03127604 -3.93285731 -0.02608861 0 0 Z " fill="#5A5FA7" transform="translate(173.93359375,5.953125)"/>
<path d="M0 0 C0 51.81 0 103.62 0 157 C-0.33 157 -0.66 157 -1 157 C-1 154.36 -1 151.72 -1 149 C-1.66 149 -2.32 149 -3 149 C-4.4453125 147.49609375 -4.4453125 147.49609375 -6.125 145.4375 C-9.29312862 141.68243387 -12.69430236 138.54734343 -16.49609375 135.4453125 C-16.99238281 134.96835938 -17.48867187 134.49140625 -18 134 C-18 133.34 -18 132.68 -18 132 C-18.58458418 131.74045532 -19.16916836 131.48091064 -19.77146721 131.21350098 C-22.1630024 129.91124045 -23.73683574 128.50944522 -25.65652466 126.58398438 C-26.36592194 125.87733643 -27.07531921 125.17068848 -27.80621338 124.44262695 C-28.57415222 123.66749756 -29.34209106 122.89236816 -30.13330078 122.09375 C-31.35830795 120.86918091 -31.35830795 120.86918091 -32.60806274 119.61987305 C-35.30857974 116.91796187 -38.00194093 114.20903254 -40.6953125 111.5 C-42.56767025 109.62391177 -44.44041678 107.74821996 -46.31369019 105.87304688 C-50.74219139 101.43833122 -55.16557131 96.99854366 -59.58713043 92.55690765 C-64.61364408 87.5080634 -69.64581441 82.46487352 -74.67848229 77.42216492 C-84.60922629 67.47137435 -94.53350655 57.51415643 -104.45321846 47.55236816 C-105.63427567 46.36704525 -106.81680802 45.18319198 -108 44 C-78.33629441 14.96500493 -41.51119212 0 0 0 Z " fill="#7277B6" transform="translate(181,6)"/>
<path d="M0 0 C6.04292926 0.0724226 12.08595055 0.13617526 18.12896729 0.20080566 C29.85432878 0.3274128 41.57956412 0.46309281 53.30474854 0.60510254 C53.33199409 2.6506001 53.35125488 4.69620481 53.36724854 6.74182129 C53.3788501 7.88094971 53.39045166 9.02007812 53.40240479 10.19372559 C52.96360351 25.5221513 44.42690655 40.51005817 34.30474854 51.60510254 C33.52937744 52.51775879 33.52937744 52.51775879 32.73834229 53.44885254 C20.84327635 66.56621848 1.43000104 74.97588429 -16.02728271 75.89025879 C-38.35460823 76.55845579 -58.02575093 69.33963622 -74.35540771 53.96447754 C-85.67514434 42.55025229 -95.32096425 26.67989079 -95.79290771 10.19372559 C-95.78130615 9.05459717 -95.76970459 7.91546875 -95.75775146 6.74182129 C-95.74872803 5.58770752 -95.73970459 4.43359375 -95.73040771 3.24450684 C-95.71880615 2.37350342 -95.70720459 1.5025 -95.69525146 0.60510254 C-63.78082473 -0.39139558 -31.92520508 -0.39136662 0 0 Z " fill="#3F4D7E" transform="translate(126.69525146484375,156.3948974609375)"/>
<path d="M0 0 C-3.10467986 1.67344446 -6.19191419 2.72670631 -9.5625 3.75 C-28.19801376 9.90900333 -43.07119129 22.89332127 -52.20703125 40.2265625 C-57.55819204 51.06514707 -59.79280903 61.9452524 -60 74 C-64.26048499 72.35211311 -67.09257247 69.16013297 -70.2265625 65.96875 C-70.81545258 65.37703003 -71.40434265 64.78531006 -72.01107788 64.17565918 C-73.88714312 62.28842633 -75.75613164 60.3943573 -77.625 58.5 C-78.89016264 57.22480153 -80.15578268 55.95005669 -81.421875 54.67578125 C-83.73673206 52.34459343 -86.04904396 50.0109496 -88.35791016 47.67382812 C-89.90127461 46.11192391 -91.44733799 44.55266201 -93 43 C-68.9662861 19.47567117 -34.64125656 -0.59726304 0 0 Z " fill="#ABAED2" transform="translate(166,7)"/>
<path d="M0 0 C0.495 0.99 0.495 0.99 1 2 C0.17546539 3.92791184 -0.73783051 5.81805376 -1.6875 7.6875 C-11.30486402 28.15522343 -10.97577796 47.1789967 -3.90234375 68.2734375 C-1.46073257 74.7126697 1.83262456 79.98720091 6.03515625 85.4296875 C8.14896389 88.19486727 10.0693244 91.1039866 12 94 C-2.19 94 -16.38 94 -31 94 C-31 95.98 -31 97.96 -31 100 C-31.33 100 -31.66 100 -32 100 C-32.8459167 74.3405267 -28.27708587 50.10725545 -17 27 C-16.68659668 26.35401855 -16.37319336 25.70803711 -16.05029297 25.04248047 C-11.572151 15.93821523 -6.36259443 7.90905835 0 0 Z " fill="#ABADD3" transform="translate(62,63)"/>
<path d="M0 0 C-3.27171708 1.75439901 -6.60422042 2.95717385 -10.125 4.125 C-11.17945313 4.47820313 -12.23390625 4.83140625 -13.3203125 5.1953125 C-16 6 -16 6 -18 6 C-18 5.34 -18 4.68 -18 4 C-19.32 4.33 -20.64 4.66 -22 5 C-22.33 4.34 -22.66 3.68 -23 3 C-7.25512528 -0.44419134 -7.25512528 -0.44419134 0 0 Z " fill="#B2B4D3" transform="translate(166,7)"/>
<path d="M0 0 C0.33 0.66 0.66 1.32 1 2 C0.12318898 4.18041416 -0.85144681 6.32199951 -1.875 8.4375 C-4.14366075 13.13526642 -4.14366075 13.13526642 -6 18 C-6.99 17.67 -7.98 17.34 -9 17 C-7.21470545 10.23467327 -4.50062149 5.34539835 0 0 Z " fill="#ABADD6" transform="translate(62,63)"/>
<path d="M0 0 C7.53724803 3.1375986 7.53724803 3.1375986 9.375 6.5625 C9.58125 7.366875 9.7875 8.17125 10 9 C10.99 10.485 10.99 10.485 12 12 C9 12 9 12 6.9921875 10.390625 C6.29351562 9.68421875 5.59484375 8.9778125 4.875 8.25 C4.17117187 7.55390625 3.46734375 6.8578125 2.7421875 6.140625 C1.00172343 4.00211758 0.39999831 2.69089773 0 0 Z " fill="#495379" transform="translate(46,201)"/>
<path d="M0 0 C1.65 0.99 3.3 1.98 5 3 C5.99 2.01 6.98 1.02 8 0 C8 2.97 8 5.94 8 9 C4.41846941 7.20923471 2.53148075 5.98353088 0 3 C0 2.01 0 1.02 0 0 Z " fill="#9FA4D4" transform="translate(98,72)"/>
<path d="M0 0 C1.9375 0.3125 1.9375 0.3125 4 1 C4.33 1.99 4.66 2.98 5 4 C5.99 4.66 6.98 5.32 8 6 C7.67 6.99 7.34 7.98 7 9 C5.82737096 7.88121617 4.66204862 6.75476949 3.5 5.625 C2.8503125 4.99851562 2.200625 4.37203125 1.53125 3.7265625 C0 2 0 2 0 0 Z " fill="#A4A7DB" transform="translate(88,63)"/>
<path d="M0 0 C1 3 1 3 1 7 C0.67 7.66 0.34 8.32 0 9 C-1.32 8.67 -2.64 8.34 -4 8 C-2.87548273 5.0280615 -1.77706209 2.66559313 0 0 Z " fill="#B5B8D4" transform="translate(54,74)"/>
<path d="M0 0 C0.66 0.99 1.32 1.98 2 3 C0.68 4.32 -0.64 5.64 -2 7 C-2.99 6.67 -3.98 6.34 -5 6 C-3.35 4.02 -1.7 2.04 0 0 Z " fill="#7074AA" transform="translate(72,51)"/>
<path d="M0 0 C0.33 0.99 0.66 1.98 1 3 C-0.65 3.33 -2.3 3.66 -4 4 C-4 3.34 -4 2.68 -4 2 C-4.66 1.67 -5.32 1.34 -6 1 C-3 0 -3 0 0 0 Z " fill="#B4B6D2" transform="translate(142,11)"/>
<path d="M0 0 C0.99 0 1.98 0 3 0 C2.43628586 3.26954202 1.50037734 4.82575883 -1 7 C-2 4 -2 4 -1.0625 1.8125 C-0.5365625 0.9153125 -0.5365625 0.9153125 0 0 Z " fill="#4A537A" transform="translate(166,195)"/>
<path d="M0 0 C2.05825864 4.11651727 2.34008135 4.86808251 1 9 C0.01 9.495 0.01 9.495 -1 10 C-0.67 6.7 -0.34 3.4 0 0 Z " fill="#BCBED3" transform="translate(34,119)"/>
</svg>
